<?xml version="1.0" encoding="UTF-8" standalone="no"?>
<!DOCTYPE svg PUBLIC "-//W3C//DTD SVG 1.1//EN" "http://www.w3.org/Graphics/SVG/1.1/DTD/svg11.dtd">
<svg width="100%" height="100%" viewBox="0 0 1024 1024" version="1.1" xmlns="http://www.w3.org/2000/svg" xmlns:xlink="http://www.w3.org/1999/xlink" xml:space="preserve" xmlns:serif="http://www.serif.com/" style="fill-rule:evenodd;clip-rule:evenodd;stroke-linejoin:round;stroke-miterlimit:2;">
    <g transform="matrix(1,0,0,1,-0.635704,0)">
        <g transform="matrix(1.108218,0,0,1.108218,-34.594492,-21.846955)">
            <path d="M397.386,425.707C422.714,422.906 461.009,428.281 470.626,455.94C475.273,469.303 473.873,485.31 474.177,499.313C474.593,518.439 473.241,537.861 475.397,556.884C475.932,561.518 480.271,571.86 478.463,575.735C473.507,579.328 446.916,578.652 440.366,576.423C437.273,575.37 436.562,564.859 436.302,562.003C417.501,581.176 394.626,585.868 368.222,579.492C357.119,576.811 348.375,568.585 343.02,558.623C340.407,553.415 338.958,547.729 338.438,541.94C332.307,473.61 416.732,497.956 431.578,478.905C433.53,476.401 433.695,473.36 433.199,470.326C432.4,465.439 429.752,461.38 425.719,458.544C418.664,453.585 409.136,452.85 400.85,454.283C391.321,455.931 385.428,460.686 382.611,469.998C381.829,472.585 381.254,475.452 379.599,477.649C378.236,479.458 376.426,479.979 374.271,480.288C367.239,481.299 351.373,480.277 345.591,475.72C344.251,474.663 343.82,473.244 343.68,471.616C342.925,462.786 347.453,451.346 353.033,444.6C363.946,431.406 381.059,427.131 397.386,425.707ZM432.917,506.671C427.154,508.008 421.372,509.261 415.573,510.431C401.062,513.347 375.889,517.205 380.649,538.512C381.51,542.36 383.542,545.847 386.465,548.494C398.52,557.529 417.661,554.821 426.895,542.913C433.315,534.635 434.693,516.983 433.185,507.02L432.917,506.671Z" style="fill:rgb(15,14,13);"/>
            <path d="M733.354,425.706C763.297,421.611 786.225,442.978 787.326,472.623C788.529,505 787.671,537.529 787.897,569.94C787.92,573.193 786.806,576.695 782.754,577.472C772.1,577.52 758.012,579.713 748.024,575.912C745.12,574.453 746.182,556.376 746.179,552.392L746.118,509.908C746.079,488.86 749.513,453.704 715.509,458.925C707.358,460.176 701.764,465.986 697.417,472.59C686.001,494.768 696.699,566.152 690.725,575.842C685.046,579.75 677.492,577.405 671.112,577.839C646.923,579.485 650.438,576.501 650.412,554.631L650.386,523.658L650.379,468.528C650.382,459.14 650.344,449.684 650.444,440.297C650.461,438.683 650.814,432.309 651.984,431.302C653.116,430.328 654.983,429.804 656.607,429.803C665.094,429.801 674.076,429.005 682.472,429.52C683.818,429.726 685.699,430.461 686.618,431.511C690.703,436.175 689.546,446.293 689.477,452.175C700.756,435.556 713.343,427.567 733.354,425.706Z" style="fill:rgb(15,14,13);fill-rule:nonzero;"/>
            <path d="M208.9,429.666C246.992,428.732 285.926,430.117 324.101,429.769C329.357,429.721 331.328,433.426 331.444,438.872C331.571,444.819 332.128,454.269 330.312,460.205C324.543,469.087 315.256,476.926 308.297,484.994C290.158,505.234 270.004,524.859 252.235,545.175L298.366,545.063C302.776,545.057 328.734,543.906 330.642,547.323C334.021,553.375 338.471,566.314 339.79,573.529C340.034,574.865 336.813,576.834 335.827,577.396C331.03,578.114 322.174,577.861 317.05,577.859L286.002,577.834L236.691,577.85C229.486,577.857 207.556,578.824 201.861,575.97C198.557,571.151 199.762,551.531 200.063,544.87C203.243,539.338 216.892,525.889 221.931,520.341C239.875,500.582 259.772,481.272 277.542,461.456C265.19,461.193 212.757,463.068 205.111,460.207C202.043,457.44 203.219,445.911 203.128,441.685C203.001,435.791 201.919,431.07 208.9,429.666Z" style="fill:rgb(15,14,13);fill-rule:nonzero;"/>
            <path d="M619.75,426.111C624.77,425.784 642.851,425.188 643.216,432.384C643.554,439.026 642.341,446.699 642.439,453.596C642.477,456.243 642.473,463.396 640.619,465.789C636.705,469.365 629.423,463.306 624.879,462.205C615.806,460.007 606.88,461.448 600.021,468.234C585.162,482.722 586.988,507.525 587.007,526.58L587.048,560.862C587.052,578.358 586.896,578.042 568.883,577.972C563.172,577.95 557.073,577.914 551.337,577.874C549.027,577.393 545.471,576.328 545.336,573.537C544.658,559.492 544.967,544.239 544.968,530.191L544.926,472.102C544.913,466.22 544.094,435.512 546.246,431.917C552.178,427.663 565.801,430.434 573.203,429.58C588.631,427.8 585.078,444.191 584.956,454.323C594.74,440.058 601.884,429.458 619.75,426.111Z" style="fill:rgb(15,14,13);fill-rule:nonzero;"/>
            <path d="M504.654,429.749C508.744,429.726 528.195,428.502 529.102,432.684C530.308,438.239 529.967,448.128 529.958,454.065L529.943,485.021L529.949,540.557C529.95,550.313 529.976,560.06 529.876,569.815C529.781,579.046 523.884,577.898 516.625,577.866C511.732,577.835 490.815,579.803 489.847,574.256C488.84,568.484 489.077,558.079 489.074,551.866L489.051,516.685L489.029,464.432C489.025,455.27 489.028,446.149 489.119,436.989C489.211,427.804 497.789,429.663 504.654,429.749Z" style="fill:rgb(15,14,13);fill-rule:nonzero;"/>
            <path d="M493.217,381.643C503.297,380.996 515.481,381.231 525.557,381.92C531.381,382.319 530.132,398.712 530.122,403.111C530.109,408.356 531.158,415.925 525.791,418.424C515.953,418.891 505.509,418.893 495.256,418.477C485.726,418.09 489.769,398.782 488.956,392.167C488.481,388.298 489.575,383.79 493.217,381.643Z" style="fill:rgb(15,14,13);fill-rule:nonzero;"/>
        </g>
    </g>
</svg>
